<?xml version="1.0" encoding="utf-8"?>
<!-- Svg Vector Icons : http://www.onlinewebfonts.com/icon -->
<!DOCTYPE svg PUBLIC "-//W3C//DTD SVG 1.1//EN" "http://www.w3.org/Graphics/SVG/1.1/DTD/svg11.dtd">
<svg version="1.1" xmlns="http://www.w3.org/2000/svg" xmlns:xlink="http://www.w3.org/1999/xlink" x="0px" y="0px" viewBox="0 0 1000 1000" enable-background="new 0 0 1000 1000" xml:space="preserve">
<metadata> Svg Vector Icons : http://www.onlinewebfonts.com/icon </metadata>
<g><g transform="translate(0.000000,512.000000) scale(0.100000,-0.100000)"><path d="M3776.6,5001.3c-503.5-84.2-972.6-482.5-1141.1-968.7c-80.4-229.7-86.2-327.4-86.2-1531.6V1346.5h-291c-356.1,0-503.5-28.7-723.7-135.9c-315.9-157-568.6-482.4-641.4-830.9c-42.1-199.1-42.1-3993.7,0-4192.8c72.7-346.5,321.6-668.2,641.4-829c291-145.5,76.6-137.8,3465.3-137.8c3388.7,0,3174.3-7.7,3465.3,137.8c315.9,158.9,570.5,488.2,641.4,829c42.1,199.1,42.1,3993.7,0,4192.8c-70.8,342.7-327.4,675.8-641.4,830.9c-291,141.7-145.5,135.9-2866,135.9H3162.1v1144.9c0,953.4,3.8,1162.1,28.7,1254c84.2,323.6,312.1,551.4,635.6,635.6c162.7,42.1,2184.4,42.1,2347.2,0c294.8-76.6,495.9-256.6,610.7-543.7c40.2-101.5,44-143.6,53.6-742.8c9.6-603.1,11.5-637.5,49.8-687.3c74.7-101.5,135.9-132.1,256.6-132.1s181.9,30.6,256.6,132.1c38.3,49.8,40.2,80.4,45.9,639.5c3.8,356.1-1.9,639.5-15.3,719.9c-47.9,312.1-191.5,587.8-419.3,817.5c-225.9,225.9-501.6,369.5-806,417.4C6053,5026.2,3926,5026.2,3776.6,5001.3z M8097.7,703.2c145.5-47.9,268-151.2,346.5-294.8l68.9-124.5v-2000.7v-2000.7l-51.7-97.6c-76.6-145.5-134-204.8-268-277.6l-120.6-65.1H5000H1927.2l-95.7,47.9c-122.5,59.3-237.4,174.2-296.7,296.8l-47.9,95.7v2000.7V284l47.9,95.7c82.3,164.6,239.3,294.8,411.6,336.9c32.6,7.7,1407.2,13.4,3055.6,15.3C7714.8,733.9,8009.6,730,8097.7,703.2z"/><path d="M4808.5-522.1c-252.7-91.9-421.2-325.5-421.2-582c0-180,109.1-398.2,241.2-484.4l65.1-42.1v-608.8v-608.8l47.9-46c44-46,59.4-47.9,258.5-47.9c199.1,0,214.4,1.9,258.5,47.9l47.9,46v608.8v608.8l65.1,42.1c84.2,53.6,172.3,181.9,214.4,310.1c90,273.8-55.5,599.3-327.4,727.5C5134-491.4,4929.2-478,4808.5-522.1z"/></g></g>
</svg>